<?xml version="1.0" encoding="iso-8859-1"?><!DOCTYPE svg PUBLIC "-//W3C//DTD SVG 1.1//EN"
        "http://www.w3.org/Graphics/SVG/1.1/DTD/svg11.dtd">
<svg xmlns="http://www.w3.org/2000/svg" xmlns:xlink="http://www.w3.org/1999/xlink">
    <symbol viewBox="0 0 268.832 268.832" id="arrow" xmlns="http://www.w3.org/2000/svg">
        <path d="M265.171 125.577l-80-80c-4.881-4.881-12.797-4.881-17.678 0-4.882 4.882-4.882 12.796 0 17.678l58.661 58.661H12.5c-6.903 0-12.5 5.597-12.5 12.5 0 6.902 5.597 12.5 12.5 12.5h213.654l-58.659 58.661c-4.882 4.882-4.882 12.796 0 17.678 2.44 2.439 5.64 3.661 8.839 3.661s6.398-1.222 8.839-3.661l79.998-80c4.882-4.882 4.882-12.796 0-17.678z"/>
    </symbol>
    <symbol viewBox="0 0 45.871 45.871" id="arrow-up" xmlns="http://www.w3.org/2000/svg">
        <path d="M44.68 29.383L26.728 11.52a5.377 5.377 0 00-7.585 0L1.19 29.383C.03 30.538-.319 32.09.306 33.605c.624 1.512 2.099 2.311 3.735 2.311h37.786c1.638 0 3.112-.799 3.736-2.312.626-1.514.277-3.065-.883-4.221z"/>
    </symbol>
    <symbol viewBox="0 0 129 129" id="down-arrow" xmlns="http://www.w3.org/2000/svg">
        <path d="M121.3 34.6c-1.6-1.6-4.2-1.6-5.8 0l-51 51.1-51.1-51.1c-1.6-1.6-4.2-1.6-5.8 0-1.6 1.6-1.6 4.2 0 5.8l53.9 53.9c.8.8 1.8 1.2 2.9 1.2 1 0 2.1-.4 2.9-1.2l53.9-53.9c1.7-1.6 1.7-4.2.1-5.8z"/>
    </symbol>
    <symbol viewBox="0 0 512 512" id="fullscreen" xmlns="http://www.w3.org/2000/svg">
        <path d="M104 72h48a24 24 0 0024-24 24 24 0 00-24-24H48a24 24 0 00-24 24v104a24 24 0 0048 0v-48l116 116a22.627 22.627 0 0032 0 22.627 22.627 0 000-32zM220 292a22.627 22.627 0 00-32 0L72 408v-48a24 24 0 00-48 0v104a24 24 0 0024 24h104a24 24 0 0024-24 24 24 0 00-24-24h-48l116-116a22.627 22.627 0 000-32zM464 24H360a24 24 0 00-24 24 24 24 0 0024 24h48L292 188a22.627 22.627 0 000 32 22.627 22.627 0 0032 0l116-116v48a24 24 0 0048 0V48a24 24 0 00-24-24zM464 336a24 24 0 00-24 24v48L324 292a22.627 22.627 0 00-32 0 22.627 22.627 0 000 32l116 116h-48a24 24 0 00-24 24 24 24 0 0024 24h104a24 24 0 0024-24V360a24 24 0 00-24-24z"/>
    </symbol>
    <symbol id="ic_stats" viewBox="2 2 28 28">
        <rect height="12" rx="1" width="8" x="2" y="18" fill="currentColor"/>
        <rect height="20" rx="1" width="8" x="22" y="10" fill="currentColor"/>
        <rect height="28" rx="1" width="8" x="12" y="2" fill="currentColor"/>
    </symbol>

    <symbol id="ic_settings" viewBox="0 0 512 512">
        <path d="M500.633,211.454l-58.729-14.443c-3.53-11.133-8.071-21.929-13.55-32.256c8.818-14.678,27.349-45.571,27.349-45.571 c3.545-5.903,2.607-13.462-2.256-18.325l-42.422-42.422c-4.863-4.878-12.407-5.815-18.325-2.256L347.055,83.53 c-10.269-5.435-21.006-9.932-32.065-13.433l-14.443-58.729C298.876,4.688,292.885,0,286,0h-60 c-6.885,0-12.891,4.688-14.546,11.367c0,0-10.005,40.99-14.429,58.715c-11.792,3.735-23.188,8.584-34.043,14.502l-47.329-28.403 c-5.918-3.516-13.447-2.607-18.325,2.256l-42.422,42.422c-4.863,4.863-5.801,12.422-2.256,18.325l29.268,48.882 c-4.717,9.302-8.672,18.984-11.821,28.901l-58.729,14.487C4.688,213.124,0,219.115,0,226v60c0,6.885,4.688,12.891,11.367,14.546 l58.744,14.443c3.56,11.294,8.188,22.266,13.799,32.798l-26.191,43.652c-3.545,5.903-2.607,13.462,2.256,18.325l42.422,42.422 c4.849,4.849,12.407,5.771,18.325,2.256c0,0,29.37-17.607,43.755-26.221c10.415,5.552,21.313,10.137,32.549,13.696l14.429,58.715 C213.109,507.313,219.115,512,226,512h60c6.885,0,12.876-4.688,14.546-11.367l14.429-58.715 c11.558-3.662,22.69-8.394,33.281-14.136c14.78,8.862,44.443,26.66,44.443,26.66c5.903,3.53,13.462,2.622,18.325-2.256 l42.422-42.422c4.863-4.863,5.801-12.422,2.256-18.325l-26.968-44.927c5.317-10.093,9.727-20.654,13.169-31.523l58.729-14.443 C507.313,298.876,512,292.885,512,286v-60C512,219.115,507.313,213.124,500.633,211.454z M256,361c-57.891,0-105-47.109-105-105 s47.109-105,105-105s105,47.109,105,105S313.891,361,256,361z"
              fill="currentColor"/>
    </symbol>

    <symbol id="ic_info" viewBox="0 0 23.625 23.625">
        <path d="M11.812,0C5.289,0,0,5.289,0,11.812s5.289,11.813,11.812,11.813s11.813-5.29,11.813-11.813 S18.335,0,11.812,0z M14.271,18.307c-0.608,0.24-1.092,0.422-1.455,0.548c-0.362,0.126-0.783,0.189-1.262,0.189 c-0.736,0-1.309-0.18-1.717-0.539s-0.611-0.814-0.611-1.367c0-0.215,0.015-0.435,0.045-0.659c0.031-0.224,0.08-0.476,0.147-0.759 l0.761-2.688c0.067-0.258,0.125-0.503,0.171-0.731c0.046-0.23,0.068-0.441,0.068-0.633c0-0.342-0.071-0.582-0.212-0.717 c-0.143-0.135-0.412-0.201-0.813-0.201c-0.196,0-0.398,0.029-0.605,0.09c-0.205,0.063-0.383,0.12-0.529,0.176l0.201-0.828 c0.498-0.203,0.975-0.377,1.43-0.521c0.455-0.146,0.885-0.218,1.29-0.218c0.731,0,1.295,0.178,1.692,0.53 c0.395,0.353,0.594,0.812,0.594,1.376c0,0.117-0.014,0.323-0.041,0.617c-0.027,0.295-0.078,0.564-0.152,0.811l-0.757,2.68 c-0.062,0.215-0.117,0.461-0.167,0.736c-0.049,0.275-0.073,0.485-0.073,0.626c0,0.356,0.079,0.599,0.239,0.728 c0.158,0.129,0.435,0.194,0.827,0.194c0.185,0,0.392-0.033,0.626-0.097c0.232-0.064,0.4-0.121,0.506-0.17L14.271,18.307z  M14.137,7.429c-0.353,0.328-0.778,0.492-1.275,0.492c-0.496,0-0.924-0.164-1.28-0.492c-0.354-0.328-0.533-0.727-0.533-1.193 c0-0.465,0.18-0.865,0.533-1.196c0.356-0.332,0.784-0.497,1.28-0.497c0.497,0,0.923,0.165,1.275,0.497 c0.353,0.331,0.53,0.731,0.53,1.196C14.667,6.703,14.49,7.101,14.137,7.429z"
              fill="currentColor"/>
    </symbol>

    <symbol viewBox="0 0 512.001 512.001" id="cn">
        <path d="M503.172 423.725H8.828A8.829 8.829 0 010 414.897V97.104a8.829 8.829 0 018.828-8.828h494.345a8.829 8.829 0 018.828 8.828v317.793a8.83 8.83 0 01-8.829 8.828z"
              fill="#ff4b55"/>
        <g fill="#ffe15a">
            <path d="M85.007 140.733l8.416 25.234 26.6.206c3.444.026 4.872 4.422 2.101 6.467l-21.398 15.801 8.023 25.362c1.038 3.284-2.7 5.999-5.502 3.997l-21.64-15.469-21.64 15.468c-2.802 2.003-6.54-.714-5.502-3.997l8.023-25.362-21.398-15.8c-2.771-2.046-1.343-6.441 2.101-6.467l26.6-.206 8.416-25.234c1.09-3.268 5.711-3.268 6.8 0zM181.599 146.951l6.035 8.23 9.739-3.046c1.261-.394 2.298 1.044 1.526 2.115l-5.962 8.281 5.906 8.321c.765 1.077-.282 2.508-1.54 2.105l-9.719-3.111-6.089 8.189c-.788 1.06-2.473.506-2.478-.814l-.045-10.205-9.67-3.261c-1.251-.423-1.246-2.195.009-2.609l9.69-3.196.114-10.204c.014-1.319 1.703-1.86 2.484-.795zM144.857 122.421l10.145 1.102 4.328-9.241c.561-1.196 2.321-.991 2.591.302l2.086 9.988 10.126 1.26c1.311.163 1.66 1.901.513 2.558l-8.855 5.07 1.931 10.02c.25 1.298-1.295 2.166-2.274 1.279l-7.559-6.855-8.932 4.932c-1.156.639-2.461-.563-1.919-1.768l4.183-9.308-7.452-6.972c-.964-.898-.225-2.509 1.088-2.367zM160.895 221.314l-6.035 8.23-9.739-3.046c-1.261-.394-2.298 1.044-1.526 2.115l5.962 8.281-5.906 8.321c-.765 1.077.282 2.508 1.54 2.105l9.719-3.111 6.089 8.189c.788 1.06 2.473.506 2.478-.814l.045-10.205 9.67-3.261c1.252-.423 1.246-2.195-.009-2.609l-9.69-3.196-.114-10.204c-.016-1.318-1.703-1.861-2.484-.795zM197.635 198.263l-10.145 1.102-4.328-9.241c-.561-1.196-2.321-.991-2.591.302l-2.087 9.988-10.126 1.26c-1.311.163-1.66 1.901-.513 2.558l8.855 5.07-1.931 10.02c-.25 1.298 1.295 2.166 2.274 1.279l7.559-6.855 8.932 4.932c1.156.639 2.461-.563 1.919-1.768l-4.183-9.308 7.452-6.972c.967-.898.228-2.509-1.087-2.367z"/>
        </g>
    </symbol>

    <symbol viewBox="0 0 512.001 512.001" id="de">
        <path d="M512 200.093H0V97.104a8.829 8.829 0 018.828-8.828h494.345a8.829 8.829 0 018.828 8.828L512 200.093z"
              fill="#464655"/>
        <path d="M503.172 423.725H8.828A8.829 8.829 0 010 414.897V311.909h512v102.988a8.828 8.828 0 01-8.828 8.828z"
              fill="#ffe15a"/>
        <path fill="#ff4b55" d="M0 200.091h512v111.81H0z"/>
    </symbol>

    <symbol viewBox="0 0 512.002 512.002" id="en-gb">
        <path d="M503.172 423.725H8.828A8.829 8.829 0 010 414.897V97.104a8.829 8.829 0 018.828-8.828h494.345a8.829 8.829 0 018.828 8.828v317.793a8.83 8.83 0 01-8.829 8.828z"
              fill="#41479b"/>
        <path d="M512 97.104a8.829 8.829 0 00-8.828-8.828h-39.495l-163.54 107.147V88.276h-88.276v107.147L48.322 88.276H8.828A8.829 8.829 0 000 97.104v22.831l140.309 91.927H0v88.276h140.309L0 392.066v22.831a8.829 8.829 0 008.828 8.828h39.495l163.54-107.147v107.147h88.276V316.578l163.54 107.147h39.495a8.829 8.829 0 008.828-8.828v-22.831l-140.309-91.927H512v-88.276H371.691L512 119.935V97.104z"
              fill="#f5f5f5"/>
        <g fill="#ff4b55">
            <path d="M512 229.518H282.483V88.276h-52.966v141.242H0v52.965h229.517v141.242h52.966V282.483H512z"/>
            <path d="M178.948 300.138L.25 416.135c.625 4.263 4.14 7.59 8.577 7.59h12.159l190.39-123.586h-32.428v-.001zM346.388 300.138H313.96l190.113 123.404c4.431-.472 7.928-4.09 7.928-8.646v-7.258l-165.613-107.5zM0 106.849l161.779 105.014h32.428L5.143 89.137C2.123 90.54 0 93.555 0 97.104v9.745zM332.566 211.863L511.693 95.586c-.744-4.122-4.184-7.309-8.521-7.309h-12.647L300.138 211.863h32.428z"/>
        </g>
    </symbol>

    <symbol viewBox="0 0 512.001 512.001" id="es">
        <path d="M8.828 423.725h494.345a8.829 8.829 0 008.828-8.828V97.104a8.829 8.829 0 00-8.828-8.828H8.828A8.83 8.83 0 000 97.104v317.793a8.828 8.828 0 008.828 8.828z"
              fill="#c8414b"/>
        <path fill="#ffd250" d="M0 158.901h512v194.21H0z"/>
        <path d="M216.276 256.001l7.485-33.681c.69-3.102-1.671-6.044-4.849-6.044h-5.272c-3.177 0-5.537 2.942-4.849 6.044l7.485 33.681z"
              fill="#c8414b"/>
        <path fill="#f5f5f5" d="M207.45 238.341h17.655v75.03H207.45z"/>
        <path fill="#fab446" d="M203.03 229.521h26.483v8.828H203.03z"/>
        <g fill="#c8414b">
            <path d="M185.38 256.001h44.14v8.828h-44.14zM229.517 291.311l-26.483-8.827v-8.828l26.483 8.828zM83.862 256.001l7.485-33.681c.69-3.102-1.671-6.044-4.849-6.044h-5.272c-3.177 0-5.537 2.942-4.849 6.044l7.485 33.681z"/>
        </g>
        <path d="M114.759 229.518a8.829 8.829 0 00-8.828 8.828v57.379c0 10.725 10.01 30.897 44.138 30.897s44.138-20.171 44.138-30.897v-57.379a8.829 8.829 0 00-8.828-8.828h-70.62z"
              fill="#f5f5f5"/>
        <g fill="#c8414b">
            <path d="M150.069 273.656h-44.138v-35.31a8.829 8.829 0 018.828-8.828h35.31v44.138zM150.069 273.656h44.138v22.069c0 12.189-9.88 22.069-22.069 22.069-12.189 0-22.069-9.88-22.069-22.069v-22.069z"/>
        </g>
        <path d="M105.931 273.656h44.138v22.069c0 12.189-9.88 22.069-22.069 22.069-12.189 0-22.069-9.88-22.069-22.069v-22.069z"
              fill="#fab446"/>
        <g fill="#c8414b">
            <path d="M141.241 313.281v-39.625h-8.828v43.693c3.284-.666 6.251-2.12 8.828-4.068zM123.586 317.349v-43.693h-8.828v39.625c2.578 1.948 5.545 3.402 8.828 4.068z"/>
        </g>
        <path fill="#ffb441" d="M114.76 256.001h26.483v8.828H114.76z"/>
        <g fill="#fab446">
            <path d="M114.76 238.341h26.483v8.828H114.76z"/>
            <path d="M119.17 243.591h17.655v15.992H119.17z"/>
        </g>
        <path fill="#f5f5f5" d="M75.03 238.341h17.655v75.03H75.03z"/>
        <g fill="#fab446">
            <path d="M70.62 308.971h26.483v8.828H70.62zM70.62 229.521h26.483v8.828H70.62z"/>
        </g>
        <path fill="#5064aa" d="M66.21 317.791h35.31v8.828H66.21z"/>
        <path fill="#fab446" d="M207.45 308.971h26.483v8.828H207.45z"/>
        <path fill="#5064aa" d="M198.62 317.791h35.31v8.828h-35.31z"/>
        <path fill="#fab446" d="M123.59 220.691h52.966v8.828H123.59z"/>
        <path fill="#ffb441" d="M145.66 194.211h8.828v26.483h-8.828z"/>
        <g fill="#f5f5f5">
            <path d="M141.241 207.449c-7.302 0-13.241-5.94-13.241-13.241 0-7.302 5.94-13.241 13.241-13.241 7.302 0 13.241 5.94 13.241 13.241.001 7.301-5.939 13.241-13.241 13.241zm0-17.655a4.417 4.417 0 00-4.414 4.414c0 2.435 1.978 4.414 4.414 4.414s4.414-1.978 4.414-4.414a4.417 4.417 0 00-4.414-4.414z"/>
            <path d="M158.897 207.449c-7.302 0-13.241-5.94-13.241-13.241 0-7.302 5.94-13.241 13.241-13.241 7.302 0 13.241 5.94 13.241 13.241s-5.94 13.241-13.241 13.241zm0-17.655a4.417 4.417 0 00-4.414 4.414 4.417 4.417 0 004.414 4.414 4.417 4.417 0 004.414-4.414 4.418 4.418 0 00-4.414-4.414z"/>
            <path d="M176.552 216.277c-7.302 0-13.241-5.94-13.241-13.241 0-7.302 5.94-13.241 13.241-13.241 7.302 0 13.241 5.94 13.241 13.241s-5.94 13.241-13.241 13.241zm0-17.655a4.417 4.417 0 00-4.414 4.414 4.417 4.417 0 004.414 4.414c2.435 0 4.414-1.978 4.414-4.414s-1.979-4.414-4.414-4.414zM123.586 216.277c-7.302 0-13.241-5.94-13.241-13.241 0-7.302 5.94-13.241 13.241-13.241 7.302 0 13.241 5.94 13.241 13.241.001 7.301-5.939 13.241-13.241 13.241zm0-17.655a4.417 4.417 0 00-4.414 4.414c0 2.435 1.978 4.414 4.414 4.414s4.414-1.979 4.414-4.415a4.416 4.416 0 00-4.414-4.413z"/>
        </g>
        <path d="M176.552 291.311v4.414c0 2.434-1.98 4.414-4.414 4.414s-4.414-1.98-4.414-4.414v-4.414h8.828m8.827-8.827h-26.483v13.241c0 7.302 5.94 13.241 13.241 13.241 7.302 0 13.241-5.94 13.241-13.241v-13.241h.001z"
              fill="#fab446"/>
        <path d="M172.138 264.829a8.829 8.829 0 01-8.828-8.828v-8.828a8.829 8.829 0 0117.656 0v8.828a8.829 8.829 0 01-8.828 8.828z"
              fill="#ffa0d2"/>
        <circle cx="150.07" cy="273.651" r="13.241" fill="#5064aa"/>
        <path fill="#fab446" d="M145.66 176.551h8.828v26.483h-8.828z"/>
        <path d="M123.586 220.691l-8.828-8.828 5.171-5.171a42.627 42.627 0 0160.28 0l5.171 5.171-8.828 8.828h-52.966z"
              fill="#c8414b"/>
        <g fill="#ffd250">
            <circle cx="150.07" cy="211.861" r="4.414"/>
            <circle cx="132.41" cy="211.861" r="4.414"/>
            <circle cx="167.72" cy="211.861" r="4.414"/>
        </g>
        <g fill="#c8414b">
            <path d="M70.62 256.001h44.14v8.828H70.62zM70.621 291.311l26.482-8.827v-8.828l-26.482 8.828z"/>
        </g>
    </symbol>

    <symbol viewBox="0 0 512 512" id="fr">
        <path d="M170.667 423.721H8.828A8.829 8.829 0 010 414.893V97.1a8.829 8.829 0 018.828-8.828h161.839v335.449z"
              fill="#41479b"/>
        <path fill="#f5f5f5" d="M170.67 88.277h170.67v335.45H170.67z"/>
        <path d="M503.172 423.721H341.333V88.273h161.839A8.829 8.829 0 01512 97.101v317.793a8.827 8.827 0 01-8.828 8.827z"
              fill="#ff4b55"/>
    </symbol>

    <symbol viewBox="0 0 512.001 512.001" id="in">
        <path d="M512 200.093H0V97.104a8.829 8.829 0 018.828-8.828h494.345a8.829 8.829 0 018.828 8.828L512 200.093z"
              fill="#fab446"/>
        <path d="M503.172 423.725H8.828A8.829 8.829 0 010 414.897V311.909h512v102.988a8.828 8.828 0 01-8.828 8.828z"
              fill="#73af00"/>
        <path fill="#f5f5f5" d="M0 200.091h512v111.81H0z"/>
        <g fill="#41479b">
            <path d="M256 303.449c-26.164 0-47.448-21.284-47.448-47.448s21.284-47.448 47.448-47.448 47.448 21.284 47.448 47.448-21.284 47.448-47.448 47.448zm0-86.069c-21.298 0-38.621 17.323-38.621 38.621 0 21.298 17.323 38.621 38.621 38.621s38.621-17.323 38.621-38.621c0-21.298-17.323-38.621-38.621-38.621z"/>
            <circle cx="256" cy="256.001" r="5.379"/>
            <path d="M256 256.808l-13.67 1.38-29.364-1.38v-1.614l29.364-1.38 13.67 1.38zM256 256.808l13.67 1.38 29.364-1.38v-1.614l-29.364-1.38-13.67 1.38z"/>
            <path d="M255.193 256.001l-1.38-13.67 1.38-29.364h1.614l1.38 29.364-1.38 13.67zM255.193 256.001l-1.38 13.67 1.38 29.364h1.614l1.38-29.364-1.38-13.67z"/>
            <path d="M255.43 256.571l-10.642-8.689L225 226.142l1.141-1.141 21.74 19.788 8.689 10.642z"/>
            <path d="M255.43 256.571l8.689 10.642 21.74 19.788L287 285.86l-19.788-21.74-10.642-8.689z"/>
            <path d="M255.43 255.431l8.689-10.642 21.74-19.788 1.141 1.141-19.788 21.74-10.642 8.689zM255.43 255.431l-10.642 8.689L225 285.86l1.141 1.141 21.74-19.788 8.689-10.642z"/>
            <path d="M256.309 256.747l-12.102 6.506-27.656 9.962-.618-1.491 26.601-12.512 13.157-3.957z"/>
            <path d="M256.309 256.747l13.157-3.957 26.601-12.512-.618-1.491-27.656 9.962-12.102 6.506z"/>
            <path d="M255.254 256.31l-6.506-12.102-9.962-27.656 1.491-.618 12.512 26.601 3.957 13.157z"/>
            <path d="M255.254 256.31l3.957 13.157 12.512 26.601 1.491-.618-9.962-27.656-6.506-12.102z"/>
            <path d="M255.691 256.747l-13.157-3.957-26.601-12.512.618-1.491 27.656 9.962 12.102 6.506zM255.691 256.747l12.102 6.506 27.656 9.962.618-1.491-26.601-12.512-13.157-3.957z"/>
            <path d="M255.254 255.692l3.957-13.157 12.512-26.601 1.491.618-9.962 27.656-6.506 12.102z"/>
            <path d="M255.254 255.692l-6.506 12.102-9.962 27.656 1.491.618 12.512-26.601 3.957-13.157z"/>
        </g>
        <circle cx="256" cy="256.001" r="7.256" fill="#f5f5f5"/>
        <circle cx="256" cy="256.001" r="4.351" fill="#41479b"/>
    </symbol>

    <symbol viewBox="0 0 512 512" id="it">
        <path d="M170.667 423.721H8.828A8.829 8.829 0 010 414.893V97.1a8.829 8.829 0 018.828-8.828h161.839v335.449z"
              fill="#73af00"/>
        <path fill="#f5f5f5" d="M170.67 88.277h170.67v335.45H170.67z"/>
        <path d="M503.172 423.721H341.333V88.273h161.839A8.829 8.829 0 01512 97.101v317.793a8.827 8.827 0 01-8.828 8.827z"
              fill="#ff4b55"/>
    </symbol>

    <symbol viewBox="0 0 512.001 512.001" id="jp">
        <path d="M503.172 423.725H8.828A8.829 8.829 0 010 414.897V97.104a8.829 8.829 0 018.828-8.828h494.345a8.829 8.829 0 018.828 8.828v317.793a8.83 8.83 0 01-8.829 8.828z"
              fill="#f5f5f5"/>
        <circle cx="256" cy="256.001" r="97.1" fill="#ff4b55"/>
    </symbol>

    <symbol viewBox="0 0 512.001 512.001" id="pl">
        <path d="M0 256h512v158.897a8.829 8.829 0 01-8.828 8.828H8.828A8.829 8.829 0 010 414.897V256z" fill="#ff4b55"/>
        <path d="M512 256H0V97.103a8.829 8.829 0 018.828-8.828h494.345a8.829 8.829 0 018.828 8.828L512 256z"
              fill="#f5f5f5"/>
    </symbol>

    <symbol viewBox="0 0 512.001 512.001" id="pt">
        <path d="M503.172 423.725H8.828A8.829 8.829 0 010 414.897V97.104a8.829 8.829 0 018.828-8.828h494.345a8.829 8.829 0 018.828 8.828v317.793a8.83 8.83 0 01-8.829 8.828z"
              fill="#ff4b55"/>
        <path d="M185.379 88.277H8.828A8.828 8.828 0 000 97.104v317.793a8.829 8.829 0 008.828 8.828H185.38V88.277h-.001z"
              fill="#73af00"/>
        <circle cx="185.45" cy="256.001" r="79.38" fill="#ffe15a"/>
        <path d="M211.932 229.518v35.31c0 14.603-11.88 26.483-26.483 26.483s-26.483-11.88-26.483-26.483v-35.31h52.966m8.827-17.655h-70.621a8.829 8.829 0 00-8.828 8.828v44.138c0 24.376 19.762 44.138 44.138 44.138s44.138-19.762 44.138-44.138v-44.138a8.827 8.827 0 00-8.827-8.828z"
              fill="#ff4b55"/>
        <path d="M211.932 229.518v35.31c0 14.603-11.88 26.483-26.483 26.483s-26.483-11.88-26.483-26.483v-35.31h52.966"
              fill="#f5f5f5"/>
        <g fill="#ffe15a">
            <circle cx="150.07" cy="220.691" r="4.414"/>
            <circle cx="220.69" cy="220.691" r="4.414"/>
            <circle cx="150.07" cy="256.001" r="4.414"/>
            <circle cx="220.69" cy="256.001" r="4.414"/>
            <circle cx="185.38" cy="220.691" r="4.414"/>
            <circle cx="211.88" cy="288.551" r="4.414"/>
            <circle cx="159.4" cy="288.551" r="4.414"/>
        </g>
        <g fill="#41479b">
            <path d="M191.149 253.763v7.602c0 3.144-2.558 5.702-5.702 5.702s-5.702-2.558-5.702-5.702v-7.602h11.404M191.149 235.741v7.602c0 3.144-2.558 5.702-5.702 5.702s-5.702-2.558-5.702-5.702v-7.602h11.404M191.149 271.97v7.602c0 3.144-2.558 5.702-5.702 5.702s-5.702-2.558-5.702-5.702v-7.602h11.404M206.506 253.763v7.602c0 3.144-2.558 5.702-5.702 5.702s-5.702-2.558-5.702-5.702v-7.602h11.404M175.794 253.763v7.602c0 3.144-2.558 5.702-5.702 5.702s-5.702-2.558-5.702-5.702v-7.602h11.404"/>
        </g>
    </symbol>

    <symbol viewBox="0 0 512.001 512.001" id="ru">
        <path d="M512 200.093H0V97.104a8.829 8.829 0 018.828-8.828h494.345a8.829 8.829 0 018.828 8.828L512 200.093z"
              fill="#f5f5f5"/>
        <path d="M503.172 423.725H8.828A8.829 8.829 0 010 414.897V311.909h512v102.988a8.828 8.828 0 01-8.828 8.828z"
              fill="#ff4b55"/>
        <path fill="#41479b" d="M0 200.091h512v111.81H0z"/>
    </symbol>

    <symbol viewBox="0 0 512.001 512.001" id="tr">
        <path d="M503.172 423.725H8.828A8.829 8.829 0 010 414.897V97.104a8.829 8.829 0 018.828-8.828h494.345a8.829 8.829 0 018.828 8.828v317.793a8.83 8.83 0 01-8.829 8.828z"
              fill="#ff4b55"/>
        <g fill="#f5f5f5">
            <path d="M253.474 225.753l13.837 18.101 21.606-7.232c1.208-.404 2.236.962 1.512 2.01l-12.939 18.753 13.555 18.314c.758 1.024-.224 2.423-1.444 2.059l-21.834-6.511-13.228 18.55c-.739 1.037-2.375.536-2.406-.737l-.555-22.777-21.73-6.849c-1.215-.383-1.244-2.092-.042-2.515l21.491-7.566-.202-22.783c-.012-1.274 1.606-1.829 2.379-.817zM176.956 326.662c-38.995 0-70.627-31.633-70.627-70.663 0-38.958 31.633-70.662 70.627-70.662 14.508 0 27.887 4.462 39.037 12.014 1.707 1.156 3.656-1.087 2.227-2.573-16.664-17.325-40.248-27.894-66.398-27.001-44.926 1.533-82.118 37.553-84.989 82.413-3.287 51.383 37.399 94.086 88.055 94.086 24.953 0 47.379-10.432 63.393-27.112 1.415-1.473-.538-3.683-2.229-2.537-11.162 7.569-24.563 12.035-39.096 12.035z"/>
        </g>
    </symbol>

    <symbol viewBox="0 0 512 512" id="en">
        <path style="fill:#F5F5F5;" d="M503.172,423.725H8.828c-4.875,0-8.828-3.953-8.828-8.828V97.104c0-4.875,3.953-8.828,8.828-8.828
	h494.345c4.875,0,8.828,3.953,8.828,8.828v317.793C512,419.773,508.047,423.725,503.172,423.725z"/>
        <g>
            <path style="fill:#FF4B55;" d="M512,114.081H0V97.104c0-4.875,3.953-8.828,8.828-8.828h494.345c4.875,0,8.828,3.953,8.828,8.828
		L512,114.081L512,114.081z"/>
            <rect y="191.491" style="fill:#FF4B55;" width="512" height="25.804"/>
            <rect y="139.881" style="fill:#FF4B55;" width="512" height="25.804"/>
            <path style="fill:#FF4B55;" d="M512,268.903H8.828c-4.875,0-8.828-3.953-8.828-8.828v-16.977h512V268.903z"/>
            <rect y="346.321" style="fill:#FF4B55;" width="512" height="25.804"/>
            <path style="fill:#FF4B55;" d="M503.172,423.725H8.828c-4.875,0-8.828-3.953-8.828-8.828v-16.976h512v16.977
		C512,419.773,508.047,423.725,503.172,423.725z"/>
            <rect y="294.711" style="fill:#FF4B55;" width="512" height="25.804"/>
        </g>
        <path style="fill:#41479B;" d="M229.517,88.277H8.828C3.953,88.277,0,92.229,0,97.104v162.97c0,4.875,3.953,8.828,8.828,8.828
	h220.69c4.875,0,8.828-3.953,8.828-8.828V97.104C238.345,92.229,234.392,88.277,229.517,88.277z"/>
        <g>
            <path style="fill:#F5F5F5;" d="M24.789,108.538l1.954,5.86l6.177,0.047c0.8,0.007,1.131,1.027,0.488,1.502l-4.969,3.67l1.864,5.889
		c0.242,0.762-0.627,1.394-1.278,0.928L24,122.843l-5.025,3.592c-0.651,0.465-1.518-0.166-1.278-0.928l1.864-5.889l-4.969-3.67
		c-0.643-0.476-0.312-1.495,0.488-1.502l6.177-0.047l1.954-5.86C23.463,107.779,24.535,107.779,24.789,108.538z"/>
            <path style="fill:#F5F5F5;" d="M24.789,139.192l1.954,5.86l6.177,0.047c0.8,0.007,1.131,1.027,0.488,1.502l-4.969,3.67l1.864,5.889
		c0.242,0.762-0.627,1.394-1.278,0.928L24,153.497l-5.025,3.592c-0.651,0.465-1.518-0.166-1.278-0.928l1.864-5.889l-4.969-3.67
		c-0.643-0.476-0.312-1.495,0.488-1.502l6.177-0.047l1.954-5.86C23.463,138.434,24.535,138.434,24.789,139.192z"/>
            <path style="fill:#F5F5F5;" d="M24.789,169.846l1.954,5.86l6.177,0.047c0.8,0.007,1.131,1.027,0.488,1.502l-4.969,3.67l1.864,5.889
		c0.242,0.762-0.627,1.394-1.278,0.928L24,184.151l-5.025,3.592c-0.651,0.465-1.518-0.166-1.278-0.928l1.864-5.889l-4.969-3.67
		c-0.643-0.476-0.312-1.495,0.488-1.502l6.177-0.047l1.954-5.86C23.463,169.088,24.535,169.088,24.789,169.846z"/>
            <path style="fill:#F5F5F5;" d="M24.789,200.501l1.954,5.86l6.177,0.047c0.8,0.007,1.131,1.027,0.488,1.502l-4.969,3.67l1.864,5.889
		c0.242,0.762-0.627,1.394-1.278,0.928L24,214.806l-5.025,3.592c-0.651,0.465-1.518-0.166-1.278-0.928l1.864-5.889l-4.969-3.67
		c-0.643-0.476-0.312-1.495,0.488-1.502l6.177-0.047l1.954-5.86C23.463,199.742,24.535,199.742,24.789,200.501z"/>
            <path style="fill:#F5F5F5;" d="M24.789,231.155l1.954,5.86l6.177,0.047c0.8,0.007,1.131,1.027,0.488,1.502l-4.969,3.67l1.864,5.889
		c0.242,0.762-0.627,1.394-1.278,0.928L24,245.46l-5.025,3.592c-0.651,0.465-1.518-0.166-1.278-0.928l1.864-5.889l-4.969-3.67
		c-0.643-0.476-0.312-1.495,0.488-1.502l6.177-0.047l1.954-5.86C23.463,230.395,24.535,230.395,24.789,231.155z"/>
            <path style="fill:#F5F5F5;" d="M48.582,123.567l1.954,5.86l6.177,0.047c0.8,0.007,1.131,1.027,0.488,1.502l-4.969,3.67l1.864,5.889
		c0.242,0.762-0.627,1.394-1.278,0.928l-5.025-3.592l-5.025,3.592c-0.651,0.465-1.518-0.166-1.278-0.928l1.864-5.889l-4.969-3.67
		c-0.643-0.476-0.312-1.495,0.488-1.502l6.177-0.047l1.954-5.86C47.255,122.809,48.329,122.809,48.582,123.567z"/>
            <path style="fill:#F5F5F5;" d="M48.582,154.222l1.954,5.86l6.177,0.047c0.8,0.007,1.131,1.027,0.488,1.502l-4.969,3.67l1.864,5.889
		c0.242,0.762-0.627,1.394-1.278,0.928l-5.025-3.592l-5.025,3.592c-0.651,0.465-1.518-0.165-1.278-0.928l1.864-5.889l-4.969-3.67
		c-0.643-0.476-0.312-1.495,0.488-1.502l6.177-0.047l1.954-5.86C47.255,153.463,48.329,153.463,48.582,154.222z"/>
            <path style="fill:#F5F5F5;" d="M48.582,184.876l1.954,5.86l6.177,0.047c0.8,0.007,1.131,1.027,0.488,1.502l-4.969,3.67l1.864,5.889
		c0.242,0.762-0.627,1.394-1.278,0.928l-5.025-3.592l-5.025,3.592c-0.651,0.465-1.518-0.166-1.278-0.928l1.864-5.889l-4.969-3.67
		c-0.643-0.476-0.312-1.495,0.488-1.502l6.177-0.047l1.954-5.86C47.255,184.117,48.329,184.117,48.582,184.876z"/>
            <path style="fill:#F5F5F5;" d="M48.582,215.53l1.954,5.86l6.177,0.047c0.8,0.007,1.131,1.027,0.488,1.502l-4.969,3.67l1.864,5.889
		c0.242,0.762-0.627,1.394-1.278,0.928l-5.025-3.592l-5.025,3.592c-0.651,0.465-1.518-0.166-1.278-0.928l1.864-5.889l-4.969-3.67
		c-0.643-0.476-0.312-1.495,0.488-1.502l6.177-0.047l1.954-5.86C47.255,214.772,48.329,214.772,48.582,215.53z"/>
            <path style="fill:#F5F5F5;" d="M72.375,108.538l1.954,5.86l6.177,0.047c0.8,0.007,1.131,1.027,0.488,1.502l-4.969,3.67l1.864,5.889
		c0.242,0.762-0.627,1.394-1.278,0.928l-5.025-3.592l-5.025,3.592c-0.651,0.465-1.518-0.166-1.278-0.928l1.864-5.889l-4.969-3.67
		c-0.643-0.476-0.312-1.495,0.488-1.502l6.177-0.047l1.954-5.86C71.049,107.779,72.122,107.779,72.375,108.538z"/>
            <path style="fill:#F5F5F5;" d="M72.375,139.192l1.954,5.86l6.177,0.047c0.8,0.007,1.131,1.027,0.488,1.502l-4.969,3.67l1.864,5.889
		c0.242,0.762-0.627,1.394-1.278,0.928l-5.025-3.592l-5.025,3.592c-0.651,0.465-1.518-0.166-1.278-0.928l1.864-5.889l-4.969-3.67
		c-0.643-0.476-0.312-1.495,0.488-1.502l6.177-0.047l1.954-5.86C71.049,138.434,72.122,138.434,72.375,139.192z"/>
            <path style="fill:#F5F5F5;" d="M72.375,169.846l1.954,5.86l6.177,0.047c0.8,0.007,1.131,1.027,0.488,1.502l-4.969,3.67l1.864,5.889
		c0.242,0.762-0.627,1.394-1.278,0.928l-5.025-3.592l-5.025,3.592c-0.651,0.465-1.518-0.166-1.278-0.928l1.864-5.889l-4.969-3.67
		c-0.643-0.476-0.312-1.495,0.488-1.502l6.177-0.047l1.954-5.86C71.049,169.088,72.122,169.088,72.375,169.846z"/>
            <path style="fill:#F5F5F5;" d="M72.375,200.501l1.954,5.86l6.177,0.047c0.8,0.007,1.131,1.027,0.488,1.502l-4.969,3.67l1.864,5.889
		c0.242,0.762-0.627,1.394-1.278,0.928l-5.025-3.592l-5.025,3.592c-0.651,0.465-1.518-0.166-1.278-0.928l1.864-5.889l-4.969-3.67
		c-0.643-0.476-0.312-1.495,0.488-1.502l6.177-0.047l1.954-5.86C71.049,199.742,72.122,199.742,72.375,200.501z"/>
            <path style="fill:#F5F5F5;" d="M72.375,231.155l1.954,5.86l6.177,0.047c0.8,0.007,1.131,1.027,0.488,1.502l-4.969,3.67l1.864,5.889
		c0.242,0.762-0.627,1.394-1.278,0.928l-5.025-3.592l-5.025,3.592c-0.651,0.465-1.518-0.166-1.278-0.928l1.864-5.889l-4.969-3.67
		c-0.643-0.476-0.312-1.495,0.488-1.502l6.177-0.047l1.954-5.86C71.049,230.395,72.122,230.395,72.375,231.155z"/>
            <path style="fill:#F5F5F5;" d="M96.169,123.567l1.954,5.86l6.177,0.047c0.8,0.007,1.131,1.027,0.488,1.502l-4.969,3.67l1.864,5.889
		c0.242,0.762-0.627,1.394-1.278,0.928l-5.025-3.592l-5.025,3.592c-0.651,0.465-1.518-0.166-1.278-0.928l1.864-5.889l-4.969-3.67
		c-0.643-0.476-0.312-1.495,0.488-1.502l6.177-0.047l1.954-5.86C94.842,122.809,95.916,122.809,96.169,123.567z"/>
            <path style="fill:#F5F5F5;" d="M96.169,154.222l1.954,5.86l6.177,0.047c0.8,0.007,1.131,1.027,0.488,1.502l-4.969,3.67l1.864,5.889
		c0.242,0.762-0.627,1.394-1.278,0.928l-5.025-3.592l-5.025,3.592c-0.651,0.465-1.518-0.165-1.278-0.928l1.864-5.889l-4.969-3.67
		c-0.643-0.476-0.312-1.495,0.488-1.502l6.177-0.047l1.954-5.86C94.842,153.463,95.916,153.463,96.169,154.222z"/>
            <path style="fill:#F5F5F5;" d="M96.169,184.876l1.954,5.86l6.177,0.047c0.8,0.007,1.131,1.027,0.488,1.502l-4.969,3.67l1.864,5.889
		c0.242,0.762-0.627,1.394-1.278,0.928l-5.025-3.592l-5.025,3.592c-0.651,0.465-1.518-0.166-1.278-0.928l1.864-5.889l-4.969-3.67
		c-0.643-0.476-0.312-1.495,0.488-1.502l6.177-0.047l1.954-5.86C94.842,184.117,95.916,184.117,96.169,184.876z"/>
            <path style="fill:#F5F5F5;" d="M96.169,215.53l1.954,5.86l6.177,0.047c0.8,0.007,1.131,1.027,0.488,1.502l-4.969,3.67l1.864,5.889
		c0.242,0.762-0.627,1.394-1.278,0.928l-5.025-3.592l-5.025,3.592c-0.651,0.465-1.518-0.166-1.278-0.928l1.864-5.889l-4.969-3.67
		c-0.643-0.476-0.312-1.495,0.488-1.502l6.177-0.047l1.954-5.86C94.842,214.772,95.916,214.772,96.169,215.53z"/>
            <path style="fill:#F5F5F5;" d="M119.962,108.538l1.954,5.86l6.177,0.047c0.8,0.007,1.131,1.027,0.488,1.502l-4.969,3.67
		l1.864,5.889c0.242,0.762-0.627,1.394-1.278,0.928l-5.026-3.592l-5.025,3.592c-0.651,0.465-1.518-0.166-1.278-0.928l1.864-5.889
		l-4.969-3.67c-0.643-0.476-0.312-1.495,0.488-1.502l6.177-0.047l1.954-5.86C118.636,107.779,119.709,107.779,119.962,108.538z"/>
            <path style="fill:#F5F5F5;" d="M119.962,139.192l1.954,5.86l6.177,0.047c0.8,0.007,1.131,1.027,0.488,1.502l-4.969,3.67
		l1.864,5.889c0.242,0.762-0.627,1.394-1.278,0.928l-5.026-3.592l-5.025,3.592c-0.651,0.465-1.518-0.166-1.278-0.928l1.864-5.889
		l-4.969-3.67c-0.643-0.476-0.312-1.495,0.488-1.502l6.177-0.047l1.954-5.86C118.636,138.434,119.709,138.434,119.962,139.192z"/>
            <path style="fill:#F5F5F5;" d="M119.962,169.846l1.954,5.86l6.177,0.047c0.8,0.007,1.131,1.027,0.488,1.502l-4.969,3.67
		l1.864,5.889c0.242,0.762-0.627,1.394-1.278,0.928l-5.026-3.592l-5.025,3.592c-0.651,0.465-1.518-0.166-1.278-0.928l1.864-5.889
		l-4.969-3.67c-0.643-0.476-0.312-1.495,0.488-1.502l6.177-0.047l1.954-5.86C118.636,169.088,119.709,169.088,119.962,169.846z"/>
            <path style="fill:#F5F5F5;" d="M119.962,200.501l1.954,5.86l6.177,0.047c0.8,0.007,1.131,1.027,0.488,1.502l-4.969,3.67
		l1.864,5.889c0.242,0.762-0.627,1.394-1.278,0.928l-5.026-3.592l-5.025,3.592c-0.651,0.465-1.518-0.166-1.278-0.928l1.864-5.889
		l-4.969-3.67c-0.643-0.476-0.312-1.495,0.488-1.502l6.177-0.047l1.954-5.86C118.636,199.742,119.709,199.742,119.962,200.501z"/>
            <path style="fill:#F5F5F5;" d="M119.962,231.155l1.954,5.86l6.177,0.047c0.8,0.007,1.131,1.027,0.488,1.502l-4.969,3.67
		l1.864,5.889c0.242,0.762-0.627,1.394-1.278,0.928l-5.026-3.592l-5.025,3.592c-0.651,0.465-1.518-0.166-1.278-0.928l1.864-5.889
		l-4.969-3.67c-0.643-0.476-0.312-1.495,0.488-1.502l6.177-0.047l1.954-5.86C118.636,230.395,119.709,230.395,119.962,231.155z"/>
            <path style="fill:#F5F5F5;" d="M143.755,123.567l1.954,5.86l6.177,0.047c0.8,0.007,1.131,1.027,0.488,1.502l-4.969,3.67
		l1.864,5.889c0.242,0.762-0.627,1.394-1.278,0.928l-5.025-3.592l-5.025,3.592c-0.651,0.465-1.518-0.166-1.278-0.928l1.864-5.889
		l-4.969-3.67c-0.643-0.476-0.312-1.495,0.488-1.502l6.177-0.047l1.954-5.86C142.43,122.809,143.502,122.809,143.755,123.567z"/>
            <path style="fill:#F5F5F5;" d="M143.755,154.222l1.954,5.86l6.177,0.047c0.8,0.007,1.131,1.027,0.488,1.502l-4.969,3.67
		l1.864,5.889c0.242,0.762-0.627,1.394-1.278,0.928l-5.025-3.592l-5.025,3.592c-0.651,0.465-1.518-0.165-1.278-0.928l1.864-5.889
		l-4.969-3.67c-0.643-0.476-0.312-1.495,0.488-1.502l6.177-0.047l1.954-5.86C142.43,153.463,143.502,153.463,143.755,154.222z"/>
            <path style="fill:#F5F5F5;" d="M143.755,184.876l1.954,5.86l6.177,0.047c0.8,0.007,1.131,1.027,0.488,1.502l-4.969,3.67
		l1.864,5.889c0.242,0.762-0.627,1.394-1.278,0.928l-5.025-3.592l-5.025,3.592c-0.651,0.465-1.518-0.166-1.278-0.928l1.864-5.889
		l-4.969-3.67c-0.643-0.476-0.312-1.495,0.488-1.502l6.177-0.047l1.954-5.86C142.43,184.117,143.502,184.117,143.755,184.876z"/>
            <path style="fill:#F5F5F5;" d="M143.755,215.53l1.954,5.86l6.177,0.047c0.8,0.007,1.131,1.027,0.488,1.502l-4.969,3.67l1.864,5.889
		c0.242,0.762-0.627,1.394-1.278,0.928l-5.025-3.592l-5.025,3.592c-0.651,0.465-1.518-0.166-1.278-0.928l1.864-5.889l-4.969-3.67
		c-0.643-0.476-0.312-1.495,0.488-1.502l6.177-0.047l1.954-5.86C142.43,214.772,143.502,214.772,143.755,215.53z"/>
            <path style="fill:#F5F5F5;" d="M167.549,108.538l1.954,5.86l6.177,0.047c0.8,0.007,1.131,1.027,0.488,1.502l-4.969,3.67
		l1.864,5.889c0.242,0.762-0.627,1.394-1.278,0.928l-5.025-3.592l-5.025,3.592c-0.651,0.465-1.518-0.166-1.278-0.928l1.864-5.889
		l-4.969-3.67c-0.643-0.476-0.312-1.495,0.488-1.502l6.177-0.047l1.954-5.86C166.222,107.779,167.296,107.779,167.549,108.538z"/>
            <path style="fill:#F5F5F5;" d="M167.549,139.192l1.954,5.86l6.177,0.047c0.8,0.007,1.131,1.027,0.488,1.502l-4.969,3.67
		l1.864,5.889c0.242,0.762-0.627,1.394-1.278,0.928l-5.025-3.592l-5.025,3.592c-0.651,0.465-1.518-0.166-1.278-0.928l1.864-5.889
		l-4.969-3.67c-0.643-0.476-0.312-1.495,0.488-1.502l6.177-0.047l1.954-5.86C166.222,138.434,167.296,138.434,167.549,139.192z"/>
            <path style="fill:#F5F5F5;" d="M167.549,169.846l1.954,5.86l6.177,0.047c0.8,0.007,1.131,1.027,0.488,1.502l-4.969,3.67
		l1.864,5.889c0.242,0.762-0.627,1.394-1.278,0.928l-5.025-3.592l-5.025,3.592c-0.651,0.465-1.518-0.166-1.278-0.928l1.864-5.889
		l-4.969-3.67c-0.643-0.476-0.312-1.495,0.488-1.502l6.177-0.047l1.954-5.86C166.222,169.088,167.296,169.088,167.549,169.846z"/>
            <path style="fill:#F5F5F5;" d="M167.549,200.501l1.954,5.86l6.177,0.047c0.8,0.007,1.131,1.027,0.488,1.502l-4.969,3.67
		l1.864,5.889c0.242,0.762-0.627,1.394-1.278,0.928l-5.025-3.592l-5.025,3.592c-0.651,0.465-1.518-0.166-1.278-0.928l1.864-5.889
		l-4.969-3.67c-0.643-0.476-0.312-1.495,0.488-1.502l6.177-0.047l1.954-5.86C166.222,199.742,167.296,199.742,167.549,200.501z"/>
            <path style="fill:#F5F5F5;" d="M167.549,231.155l1.954,5.86l6.177,0.047c0.8,0.007,1.131,1.027,0.488,1.502l-4.969,3.67
		l1.864,5.889c0.242,0.762-0.627,1.394-1.278,0.928l-5.025-3.592l-5.025,3.592c-0.651,0.465-1.518-0.166-1.278-0.928l1.864-5.889
		l-4.969-3.67c-0.643-0.476-0.312-1.495,0.488-1.502l6.177-0.047l1.954-5.86C166.222,230.395,167.296,230.395,167.549,231.155z"/>
            <path style="fill:#F5F5F5;" d="M191.342,123.567l1.954,5.86l6.177,0.047c0.8,0.007,1.131,1.027,0.488,1.502l-4.969,3.67
		l1.864,5.889c0.242,0.762-0.627,1.394-1.278,0.928l-5.025-3.592l-5.025,3.592c-0.651,0.465-1.518-0.166-1.278-0.928l1.864-5.889
		l-4.969-3.67c-0.643-0.476-0.312-1.495,0.488-1.502l6.177-0.047l1.954-5.86C190.016,122.809,191.09,122.809,191.342,123.567z"/>
            <path style="fill:#F5F5F5;" d="M191.342,154.222l1.954,5.86l6.177,0.047c0.8,0.007,1.131,1.027,0.488,1.502l-4.969,3.67
		l1.864,5.889c0.242,0.762-0.627,1.394-1.278,0.928l-5.025-3.592l-5.025,3.592c-0.651,0.465-1.518-0.165-1.278-0.928l1.864-5.889
		l-4.969-3.67c-0.643-0.476-0.312-1.495,0.488-1.502l6.177-0.047l1.954-5.86C190.016,153.463,191.09,153.463,191.342,154.222z"/>
            <path style="fill:#F5F5F5;" d="M191.342,184.876l1.954,5.86l6.177,0.047c0.8,0.007,1.131,1.027,0.488,1.502l-4.969,3.67
		l1.864,5.889c0.242,0.762-0.627,1.394-1.278,0.928l-5.025-3.592l-5.025,3.592c-0.651,0.465-1.518-0.166-1.278-0.928l1.864-5.889
		l-4.969-3.67c-0.643-0.476-0.312-1.495,0.488-1.502l6.177-0.047l1.954-5.86C190.016,184.117,191.09,184.117,191.342,184.876z"/>
            <path style="fill:#F5F5F5;" d="M191.342,215.53l1.954,5.86l6.177,0.047c0.8,0.007,1.131,1.027,0.488,1.502l-4.969,3.67l1.864,5.889
		c0.242,0.762-0.627,1.394-1.278,0.928l-5.025-3.592l-5.025,3.592c-0.651,0.465-1.518-0.166-1.278-0.928l1.864-5.889l-4.969-3.67
		c-0.643-0.476-0.312-1.495,0.488-1.502l6.177-0.047l1.954-5.86C190.016,214.772,191.09,214.772,191.342,215.53z"/>
            <path style="fill:#F5F5F5;" d="M215.136,108.538l1.954,5.86l6.177,0.047c0.8,0.007,1.131,1.027,0.488,1.502l-4.969,3.67
		l1.864,5.889c0.242,0.762-0.627,1.394-1.278,0.928l-5.025-3.592l-5.025,3.592c-0.651,0.465-1.518-0.166-1.278-0.928l1.864-5.889
		l-4.969-3.67c-0.643-0.476-0.312-1.495,0.488-1.502l6.177-0.047l1.954-5.86C213.81,107.779,214.882,107.779,215.136,108.538z"/>
            <path style="fill:#F5F5F5;" d="M215.136,139.192l1.954,5.86l6.177,0.047c0.8,0.007,1.131,1.027,0.488,1.502l-4.969,3.67
		l1.864,5.889c0.242,0.762-0.627,1.394-1.278,0.928l-5.025-3.592l-5.025,3.592c-0.651,0.465-1.518-0.166-1.278-0.928l1.864-5.889
		l-4.969-3.67c-0.643-0.476-0.312-1.495,0.488-1.502l6.177-0.047l1.954-5.86C213.81,138.434,214.882,138.434,215.136,139.192z"/>
            <path style="fill:#F5F5F5;" d="M215.136,169.846l1.954,5.86l6.177,0.047c0.8,0.007,1.131,1.027,0.488,1.502l-4.969,3.67
		l1.864,5.889c0.242,0.762-0.627,1.394-1.278,0.928l-5.025-3.592l-5.025,3.592c-0.651,0.465-1.518-0.166-1.278-0.928l1.864-5.889
		l-4.969-3.67c-0.643-0.476-0.312-1.495,0.488-1.502l6.177-0.047l1.954-5.86C213.81,169.088,214.882,169.088,215.136,169.846z"/>
            <path style="fill:#F5F5F5;" d="M215.136,200.501l1.954,5.86l6.177,0.047c0.8,0.007,1.131,1.027,0.488,1.502l-4.969,3.67
		l1.864,5.889c0.242,0.762-0.627,1.394-1.278,0.928l-5.025-3.592l-5.025,3.592c-0.651,0.465-1.518-0.166-1.278-0.928l1.864-5.889
		l-4.969-3.67c-0.643-0.476-0.312-1.495,0.488-1.502l6.177-0.047l1.954-5.86C213.81,199.742,214.882,199.742,215.136,200.501z"/>
            <path style="fill:#F5F5F5;" d="M215.136,231.155l1.954,5.86l6.177,0.047c0.8,0.007,1.131,1.027,0.488,1.502l-4.969,3.67
		l1.864,5.889c0.242,0.762-0.627,1.394-1.278,0.928l-5.025-3.592l-5.025,3.592c-0.651,0.465-1.518-0.166-1.278-0.928l1.864-5.889
		l-4.969-3.67c-0.643-0.476-0.312-1.495,0.488-1.502l6.177-0.047l1.954-5.86C213.81,230.395,214.882,230.395,215.136,231.155z"/>
        </g>
    </symbol>

    <symbol viewBox="0 0 512.002 512.002" id="uk">
        <path style="fill:#41479B;" d="M503.172,423.725H8.828c-4.875,0-8.828-3.953-8.828-8.828V97.104c0-4.875,3.953-8.828,8.828-8.828
	h494.345c4.875,0,8.828,3.953,8.828,8.828v317.793C512,419.772,508.047,423.725,503.172,423.725z"/>
        <path style="fill:#F5F5F5;" d="M512,97.104c0-4.875-3.953-8.828-8.828-8.828h-39.495l-163.54,107.147V88.276h-88.276v107.147
	L48.322,88.276H8.828C3.953,88.276,0,92.229,0,97.104v22.831l140.309,91.927H0v88.276h140.309L0,392.066v22.831
	c0,4.875,3.953,8.828,8.828,8.828h39.495l163.54-107.147v107.147h88.276V316.578l163.54,107.147h39.495
	c4.875,0,8.828-3.953,8.828-8.828v-22.831l-140.309-91.927H512v-88.276H371.691L512,119.935V97.104z"/>
        <polygon style="fill:#FF4B55;" points="512,229.518 282.483,229.518 282.483,88.276 229.517,88.276 229.517,229.518 0,229.518
		0,282.483 229.517,282.483 229.517,423.725 282.483,423.725 282.483,282.483 512,282.483 	"/>
        <path style="fill:#FF4B55;" d="M178.948,300.138L0.25,416.135c0.625,4.263,4.14,7.59,8.577,7.59h12.159l190.39-123.586h-32.428
		V300.138z"/>
        <path style="fill:#FF4B55;" d="M346.388,300.138H313.96l190.113,123.404c4.431-0.472,7.928-4.09,7.928-8.646v-7.258
		L346.388,300.138z"/>
        <path style="fill:#FF4B55;"
              d="M0,106.849l161.779,105.014h32.428L5.143,89.137C2.123,90.54,0,93.555,0,97.104V106.849z"/>
        <path style="fill:#FF4B55;" d="M332.566,211.863L511.693,95.586c-0.744-4.122-4.184-7.309-8.521-7.309h-12.647L300.138,211.863
		H332.566z"/>
    </symbol>

    <symbol viewBox="0 0 512 512" id="cs">
<path style="fill:#41479B;" d="M3.256,421.59L256,256L3.256,90.41C1.311,92.029,0,94.375,0,97.103v317.793
	C0,417.625,1.311,419.971,3.256,421.59z"/>
<path style="fill:#FF4B55;" d="M3.256,421.59c1.53,1.274,3.425,2.134,5.571,2.134h494.345c4.875,0,8.828-3.953,8.828-8.828V256H256
	L3.256,421.59z"/>
<path style="fill:#F5F5F5;" d="M3.256,90.41c1.53-1.274,3.425-2.134,5.571-2.134h494.345c4.875,0,8.828,3.953,8.828,8.828V256H256
	L3.256,90.41z"/>
    </symbol>

    <symbol viewBox="0 0 512.001 512.001" id="nl">
<path style="fill:#FF4B55;" d="M512,200.093H0V97.104c0-4.875,3.953-8.828,8.828-8.828h494.345c4.875,0,8.828,3.953,8.828,8.828
	L512,200.093L512,200.093z"/>
<path style="fill:#41479B;" d="M503.172,423.725H8.828c-4.875,0-8.828-3.953-8.828-8.828V311.909h512v102.988
	C512,419.773,508.047,423.725,503.172,423.725z"/>
<rect y="200.091" style="fill:#F5F5F5;" width="512" height="111.81"/>
    </symbol>

    <symbol viewBox="0 0 512.001 512.001" id="id">
<path style="fill:#C8414B;" d="M512,256H0V97.103c0-4.875,3.953-8.828,8.828-8.828h494.345c4.875,0,8.828,3.953,8.828,8.828L512,256
	L512,256z"/>
<path style="fill:#F5F5F5;" d="M0,256h512v158.897c0,4.875-3.953,8.828-8.828,8.828H8.828c-4.875,0-8.828-3.953-8.828-8.828V256z"/>
    </symbol>

    <symbol viewBox="0 0 512.001 512.001" id="el">
	<rect y="125.551" style="fill:#F5F5F5;" width="512" height="37.27"/>
	<rect y="200.091" style="fill:#F5F5F5;" width="512" height="37.27"/>
	<rect y="274.641" style="fill:#F5F5F5;" width="512" height="37.27"/>
<rect y="311.911" style="fill:#41479B;" width="512" height="37.27"/>
<rect y="349.181" style="fill:#F5F5F5;" width="512" height="37.27"/>
	<path style="fill:#41479B;" d="M8.828,423.725h494.345c4.875,0,8.828-3.953,8.828-8.828v-28.445H0v28.445
		C0,419.773,3.953,423.725,8.828,423.725z"/>
	<path style="fill:#41479B;" d="M512,125.549V97.104c0-4.875-3.953-8.828-8.828-8.828H8.828C3.953,88.277,0,92.229,0,97.104v65.717
		v37.271v74.545h512v-37.272H176.552v-37.272H512v-37.272H176.552v-37.272C176.552,125.549,512,125.549,512,125.549z"/>
<polygon style="fill:#F5F5F5;" points="176.552,162.821 106.912,162.821 106.912,88.277 69.64,88.277 69.64,162.821 0,162.821 
	0,200.093 69.64,200.093 69.64,274.637 106.912,274.637 106.912,200.093 176.552,200.093 "/>
    </symbol>

    <symbol viewBox="0 0 512.001 512.001" id="sv">
<path style="fill:#4173CD;" d="M503.172,423.725H8.828c-4.875,0-8.828-3.953-8.828-8.828V97.104c0-4.875,3.953-8.828,8.828-8.828
	h494.345c4.875,0,8.828,3.953,8.828,8.828v317.793C512,419.773,508.047,423.725,503.172,423.725z"/>
<polygon style="fill:#FFE15A;" points="512,229.518 211.862,229.518 211.862,88.277 158.897,88.277 158.897,229.518 0,229.518 
	0,282.484 158.897,282.484 158.897,423.725 211.862,423.725 211.862,282.484 512,282.484 "/>
    </symbol>

    <symbol viewBox="0 0 512.001 512.001" id="il">
<path style="fill:#41479B;" d="M503.172,423.725H8.828c-4.875,0-8.828-3.953-8.828-8.828V97.104c0-4.875,3.953-8.828,8.828-8.828
	h494.345c4.875,0,8.828,3.953,8.828,8.828v317.793C512,419.773,508.047,423.725,503.172,423.725z"/>
<rect y="150.071" style="fill:#F5F5F5;" width="512" height="211.86"/>
<path style="fill:#41479B;" d="M301.869,256.001l22.933-39.721h-45.865L256,176.553l-22.936,39.727h-45.865l22.933,39.721
	l-22.933,39.721h45.865L256,335.449l22.936-39.727h45.865L301.869,256.001z M302.302,229.271l-7.933,13.74l-7.933-13.74H302.302z
	 M286.869,256.001l-15.433,26.73h-30.873l-15.432-26.73l15.433-26.73h30.873L286.869,256.001z M256,202.535l7.936,13.746h-15.872
	L256,202.535z M209.698,229.271h15.865l-7.933,13.74L209.698,229.271z M209.698,282.731l7.933-13.74l7.933,13.74H209.698z
	 M256,309.467l-7.936-13.746h15.872L256,309.467z M294.369,268.991l7.933,13.74h-15.865L294.369,268.991z"/>
    </symbol>

    <symbol viewBox="0 0 512.001 512.001" id="ie">
<path style="fill:#73AF00;" d="M170.667,423.721H8.828c-4.875,0-8.828-3.953-8.828-8.828V97.1c0-4.875,3.953-8.828,8.828-8.828
	h161.839V423.721z"/>
<rect x="170.67" y="88.277" style="fill:#F5F5F5;" width="170.67" height="335.45"/>
<path style="fill:#FF9B46;" d="M503.172,423.721H341.333V88.273h161.839c4.875,0,8.828,3.953,8.828,8.828v317.793
	C512,419.77,508.047,423.721,503.172,423.721z"/>
    </symbol>

    <symbol viewBox="0 0 512 512" id="da">
<path style="fill:#FF4B55;" d="M503.172,423.725H8.828c-4.875,0-8.828-3.953-8.828-8.828V97.104c0-4.875,3.953-8.828,8.828-8.828
	h494.345c4.875,0,8.828,3.953,8.828,8.828v317.793C512,419.773,508.047,423.725,503.172,423.725z"/>
<polygon style="fill:#F5F5F5;" points="512,229.518 211.862,229.518 211.862,88.277 158.897,88.277 158.897,229.518 0,229.518 
	0,282.484 158.897,282.484 158.897,423.725 211.862,423.725 211.862,282.484 512,282.484 "/>
    </symbol>

    <symbol viewBox="0 0 512 512" id="ph">
<path style="fill:#F5F5F5;" d="M3.256,421.59L256,256L3.256,90.41C1.311,92.029,0,94.375,0,97.103v317.793
	C0,417.625,1.311,419.971,3.256,421.59z"/>
<path style="fill:#FF4B55;" d="M3.256,421.59c1.53,1.274,3.425,2.134,5.571,2.134h494.345c4.875,0,8.828-3.953,8.828-8.828V256H256
	L3.256,421.59z"/>
<path style="fill:#41479B;" d="M3.256,90.41c1.53-1.274,3.425-2.134,5.571-2.134h494.345c4.875,0,8.828,3.953,8.828,8.828V256H256
	L3.256,90.41z"/>
	<circle style="fill:#FFE15A;" cx="92.69" cy="256" r="28.69"/>
	<polygon style="fill:#FFE15A;" points="92.69,256 81.931,212.966 92.69,198.621 103.448,212.966 	"/>
	<polygon style="fill:#FFE15A;" points="92.69,256 103.448,299.034 92.69,313.379 81.931,299.034 	"/>
	<polygon style="fill:#FFE15A;" points="92.69,256 49.655,266.759 35.31,256 49.655,245.241 	"/>
	<polygon style="fill:#FFE15A;" points="92.69,256 135.724,245.241 150.069,256 135.724,266.759 	"/>
	<polygon style="fill:#FFE15A;" points="92.69,256 115.512,217.963 133.263,215.426 130.727,233.177 	"/>
	<polygon style="fill:#FFE15A;" points="92.69,256 69.867,294.037 52.116,296.574 54.653,278.823 	"/>
	<polygon style="fill:#FFE15A;" points="92.69,256 54.653,233.177 52.116,215.426 69.867,217.963 	"/>
	<polygon style="fill:#FFE15A;" points="92.69,256 130.727,278.823 133.263,296.574 115.512,294.037 	"/>
	<path style="fill:#FFE15A;" d="M23.658,131.694l1.496,11.16l-10.076,5.028c-1.304,0.651-1.03,2.588,0.405,2.85l11.076,2.026
		l1.668,11.136c0.216,1.442,2.143,1.779,2.836,0.495l5.35-9.908l11.106,1.854c1.438,0.241,2.354-1.489,1.348-2.543l-7.77-8.15
		l5.195-9.99c0.673-1.293-0.689-2.699-2.003-2.068l-10.152,4.872l-7.895-8.029C25.222,129.389,23.465,130.25,23.658,131.694z"/>
	<path style="fill:#FFE15A;" d="M28.102,348.906l-1.89,11.101l-11.114,1.805c-1.439,0.234-1.752,2.165-0.461,2.841l9.973,5.227
		l-1.717,11.128c-0.222,1.441,1.517,2.335,2.56,1.316l8.053-7.87l10.054,5.073c1.302,0.657,2.69-0.722,2.044-2.028l-4.996-10.091
		l7.93-7.993c1.026-1.035,0.146-2.781-1.298-2.57l-11.142,1.633l-5.152-10.013C30.279,347.17,28.345,347.468,28.102,348.906z"/>
	<path style="fill:#FFE15A;" d="M202.734,239.555l-6.481,9.208l-10.81-3.15c-1.399-0.408-2.513,1.201-1.639,2.367l6.755,9.009
		l-6.337,9.308c-0.82,1.205,0.365,2.761,1.745,2.29l10.655-3.64l6.894,8.903c0.893,1.153,2.739,0.505,2.717-0.952l-0.17-11.258
		l10.598-3.806c1.372-0.493,1.327-2.449-0.066-2.878l-10.761-3.318l-0.344-11.255C205.448,238.924,203.573,238.362,202.734,239.555z
		"/>
    </symbol>

    <symbol viewBox="0 0 512.001 512.001" id="ua">
<path style="fill:#FFE15A;" d="M0,256h512v158.897c0,4.875-3.953,8.828-8.828,8.828H8.828c-4.875,0-8.828-3.953-8.828-8.828V256z"/>
<path style="fill:#4173CD;" d="M512,256H0V97.103c0-4.875,3.953-8.828,8.828-8.828h494.345c4.875,0,8.828,3.953,8.828,8.828L512,256
	L512,256z"/>
    </symbol>

    <symbol viewBox="0 -44 512 511" id="kids">
        <path d="m372.152344 95.933594c0-24.414063-19.402344-44.285156-43.628906-45.066406v-11.652344h59.207031c24.910156 0 45.105469 20.191406 45.105469 45.101562v85.628906c0 2.640626-2.144532 4.78125-4.785157 4.78125-30.875 0-55.902343-25.027343-55.902343-55.898437v-22.894531zm0 0"
              fill="#ffa300"/>
        <path d="m346.761719 68.816406h4.292969c6.8125 0 12.332031-5.523437 12.332031-12.332031v-17.332031c0-6.808594-5.523438-12.332032-12.332031-12.332032h-4.292969c-6.8125 0-12.332031 5.523438-12.332031 12.332032v17.332031c0 6.808594 5.519531 12.332031 12.332031 12.332031zm0 0"
              fill="#dd5298"/>
        <path d="m387.730469 39.214844h-27.578125c24.910156 0 45.101562 20.191406 45.101562 45.101562v85.550782c6.964844 3.113281 14.675782 4.859374 22.796875 4.859374 2.640625 0 4.785157-2.140624 4.785157-4.785156v-85.625c0-24.910156-20.195313-45.101562-45.105469-45.101562zm0 0"
              fill="#ff8b00"/>
        <path d="m350.742188 26.820312h-3.671876c-1.078124 0-2.117187.152344-3.117187.40625 5.472656 1.390626 9.523437 6.332032 9.523437 12.238282v16.710937c0 5.902344-4.050781 10.847657-9.523437 12.238281 1 .253907 2.039063.402344 3.117187.402344h3.671876c6.984374 0 12.644531-5.660156 12.644531-12.640625v-16.710937c0-6.984375-5.660157-12.644532-12.644531-12.644532zm0 0"
              fill="#c93f84"/>
        <path d="m141.140625 95.933594c0-24.414063 19.398437-44.285156 43.625-45.066406v-11.652344h-59.207031c-24.910156 0-45.105469 20.191406-45.105469 45.101562v85.628906c0 2.640626 2.144531 4.78125 4.785156 4.78125 30.875 0 55.902344-25.027343 55.902344-55.898437zm0 0"
              fill="#ffa300"/>
        <path d="m157.1875 50.867188c-24.226562.78125-43.628906 20.652343-43.628906 45.066406v22.894531c0 22.75-13.597656 42.3125-33.105469 51.039063v.078124c0 2.640626 2.144531 4.78125 4.785156 4.78125 30.875 0 55.902344-25.027343 55.902344-55.898437v-22.894531c0-24.414063 19.398437-44.285156 43.625-45.066406zm0 0"
              fill="#ff8b00"/>
        <path d="m166.527344 68.816406h-4.292969c-6.808594 0-12.332031-5.523437-12.332031-12.332031v-17.332031c0-6.808594 5.523437-12.332032 12.332031-12.332032h4.292969c6.8125 0 12.332031 5.523438 12.332031 12.332032v17.332031c0 6.808594-5.519531 12.332031-12.332031 12.332031zm0 0"
              fill="#dd5298"/>
        <path d="m166.21875 26.820312h-3.671875c-1.078125 0-2.121094.152344-3.117187.40625 5.46875 1.390626 9.523437 6.332032 9.523437 12.238282v16.710937c0 5.902344-4.054687 10.847657-9.523437 12.238281.996093.253907 2.039062.402344 3.117187.402344h3.671875c6.980469 0 12.640625-5.660156 12.640625-12.640625v-16.710937c0-6.984375-5.660156-12.644532-12.640625-12.644532zm0 0"
              fill="#c93f84"/>
        <path d="m357.371094 102.972656h-1.910156v-15.394531c0-48.09375-38.988282-87.078125-87.078126-87.078125h-23.210937c-48.09375 0-87.078125 38.984375-87.078125 87.078125v15.394531h-4.289062c-10.289063 0-18.628907 8.34375-18.628907 18.632813v8.589843c0 14.296876 11.589844 25.886719 25.886719 25.886719 1.132812 0 2.242188-.117187 3.320312-.3125 12.878907 31.996094 44.183594 54.589844 80.789063 54.589844h23.210937c36.570313 0 67.855469-22.558594 80.757813-54.507813.949219.136719 1.914063.230469 2.90625.230469 14.113281 0 25.554687-11.441406 25.554687-25.554687v-7.320313c.003907-11.175781-9.054687-20.234375-20.230468-20.234375zm0 0"
              fill="#ffc5b2"/>
        <path d="m357.371094 102.972656h-1.910156v-15.394531c0-48.09375-38.988282-87.078125-87.078126-87.078125h-23.210937c-.402344 0-.792969.023438-1.191406.03125 47.539062.640625 85.882812 39.355469 85.882812 87.046875v35.703125c0 47.691406-38.34375 86.40625-85.882812 87.046875.398437.007813.789062.03125 1.191406.03125h23.210937c36.570313 0 67.855469-22.558594 80.757813-54.507813.949219.136719 1.914063.230469 2.90625.230469 14.113281 0 25.554687-11.441406 25.554687-25.554687v-7.320313c.003907-11.175781-9.054687-20.234375-20.230468-20.234375zm0 0"
              fill="#ffae92"/>
        <path d="m228.179688 64.082031h57.195312c28.742188 0 54.226562 13.933594 70.085938 35.410157v-11.914063c0-48.09375-38.984376-87.078125-87.078126-87.078125h-23.210937c-48.09375 0-87.078125 38.984375-87.078125 87.078125v11.914063c15.859375-21.476563 41.339844-35.410157 70.085938-35.410157zm0 0"
              fill="#ffa300"/>
        <path d="m268.382812.5h-23.210937c-3.203125 0-6.363281.183594-9.476563.523438 37.066407 4.011718 67.132813 31.277343 75.355469 66.910156 17.984375 5.542968 33.480469 16.761718 44.410157 31.558594v-11.914063c0-48.09375-38.988282-87.078125-87.078126-87.078125zm0 0"
              fill="#ff8b00"/>
        <path d="m231.183594 114.765625c0 6.316406-5.121094 11.4375-11.441406 11.4375-6.316407 0-11.4375-5.121094-11.4375-11.4375 0-6.320313 5.121093-11.441406 11.4375-11.441406 6.320312 0 11.441406 5.121093 11.441406 11.441406zm0 0"
              fill="#bc693f"/>
        <path d="m305.246094 114.765625c0 6.316406-5.117188 11.4375-11.4375 11.4375-6.316406 0-11.4375-5.121094-11.4375-11.4375 0-6.320313 5.121094-11.441406 11.4375-11.441406 6.320312 0 11.4375 5.121093 11.4375 11.441406zm0 0"
              fill="#bc693f"/>
        <path d="m256.777344 180.976562c19.851562 0 36.195312-15.011718 38.304687-34.300781.246094-2.253906-1.519531-4.234375-3.789062-4.234375h-69.03125c-2.269531 0-4.035157 1.980469-3.789063 4.234375 2.109375 19.289063 18.453125 34.300781 38.304688 34.300781zm0 0"
              fill="#fff"/>
        <path d="m491.765625 316.664062h-1.910156v-15.394531c0-48.09375-38.984375-87.078125-87.078125-87.078125h-23.210938c-48.089844 0-87.078125 38.984375-87.078125 87.078125v15.394531h-4.285156c-10.292969 0-18.632813 8.34375-18.632813 18.632813v8.589844c0 14.296875 11.589844 25.886719 25.886719 25.886719 1.136719 0 2.242188-.117188 3.320313-.3125 12.878906 31.992187 44.1875 54.589843 80.789062 54.589843h23.210938c36.574218 0 67.859375-22.558593 80.757812-54.507812.953125.136719 1.917969.230469 2.90625.230469 14.117188 0 25.558594-11.441407 25.558594-25.554688v-7.320312c0-11.175782-9.058594-20.234376-20.234375-20.234376zm0 0"
              fill="#ffc5b2"/>
        <path d="m491.765625 316.664062h-1.910156v-15.394531c0-48.09375-38.984375-87.078125-87.078125-87.078125h-23.210938c-.398437 0-.792968.023438-1.191406.03125 47.539062.640625 85.886719 39.355469 85.886719 87.046875v35.703125c0 47.691406-38.347657 86.40625-85.886719 87.046875.398438.007813.792969.03125 1.191406.03125h23.210938c36.574218 0 67.859375-22.558593 80.757812-54.507812.953125.136719 1.917969.230469 2.90625.230469 14.117188 0 25.558594-11.441407 25.558594-25.554688v-7.320312c0-11.175782-9.058594-20.234376-20.234375-20.234376zm0 0"
              fill="#ffae92"/>
        <path d="m362.574219 277.773438h57.195312c28.746094 0 54.226563 13.933593 70.085938 35.410156v-11.914063c0-48.09375-38.984375-87.078125-87.078125-87.078125h-23.210938c-48.089844 0-87.078125 38.984375-87.078125 87.078125v11.914063c15.859375-21.476563 41.34375-35.410156 70.085938-35.410156zm0 0"
              fill="#ffc50d"/>
        <path d="m365.578125 328.453125c0 6.320313-5.121094 11.441406-11.4375 11.441406s-11.4375-5.121093-11.4375-11.441406c0-6.316406 5.121094-11.4375 11.4375-11.4375s11.4375 5.121094 11.4375 11.4375zm0 0"
              fill="#257edf"/>
        <path d="m439.644531 328.453125c0 6.320313-5.121093 11.441406-11.4375 11.441406-6.316406 0-11.4375-5.121093-11.4375-11.441406 0-6.316406 5.121094-11.4375 11.4375-11.4375 6.316407 0 11.4375 5.121094 11.4375 11.4375zm0 0"
              fill="#257edf"/>
        <path d="m391.171875 394.667969c19.851563 0 36.195313-15.011719 38.304687-34.300781.246094-2.257813-1.519531-4.234376-3.789062-4.234376h-69.03125c-2.265625 0-4.035156 1.976563-3.789062 4.234376 2.109374 19.289062 18.453124 34.300781 38.304687 34.300781zm0 0"
              fill="#fff"/>
        <path d="m222.195312 316.664062h-1.910156v-15.394531c0-48.09375-38.984375-87.078125-87.078125-87.078125h-23.210937c-48.09375 0-87.078125 38.984375-87.078125 87.078125v15.394531h-4.285157c-10.292968 0-18.632812 8.34375-18.632812 18.632813v8.589844c0 14.296875 11.589844 25.886719 25.886719 25.886719 1.136719 0 2.242187-.117188 3.320312-.3125 12.878907 31.992187 44.1875 54.589843 80.789063 54.589843h23.210937c36.570313 0 67.859375-22.558593 80.757813-54.507812.949218.136719 1.917968.230469 2.90625.230469 14.113281 0 25.558594-11.441407 25.558594-25.554688v-7.320312c0-11.175782-9.058594-20.234376-20.234376-20.234376zm0 0"
              fill="#bc663b"/>
        <path d="m222.195312 316.664062h-1.910156v-15.394531c0-48.09375-38.984375-87.078125-87.078125-87.078125h-23.210937c-.398438 0-.792969.023438-1.191406.03125 47.539062.640625 85.886718 39.355469 85.886718 87.046875v35.703125c0 47.691406-38.347656 86.40625-85.886718 87.046875.398437.007813.792968.03125 1.191406.03125h23.210937c36.570313 0 67.859375-22.558593 80.757813-54.507812.949218.136719 1.917968.230469 2.90625.230469 14.113281 0 25.558594-11.441407 25.558594-25.554688v-7.320312c0-11.175782-9.058594-20.234376-20.234376-20.234376zm0 0"
              fill="#ad5731"/>
        <path d="m93.003906 277.773438h57.195313c28.746093 0 54.226562 13.933593 70.085937 35.410156v-11.914063c0-48.09375-38.984375-87.078125-87.078125-87.078125h-23.210937c-48.089844 0-87.078125 38.984375-87.078125 87.078125v11.914063c15.859375-21.476563 41.34375-35.410156 70.085937-35.410156zm0 0"
              fill="#824a25"/>
        <path d="m402.777344 214.191406h-23.210938c-2.921875 0-5.808594.148438-8.660156.429688 37.636719 3.71875 68.207031 31.398437 76.296875 67.574218 17.234375 5.71875 32.082031 16.675782 42.652344 30.988282v-11.914063c0-48.09375-38.984375-87.078125-87.078125-87.078125zm0 0"
              fill="#ffa300"/>
        <g fill="#703e23">
            <path d="m133.207031 214.191406h-23.210937c-2.921875 0-5.8125.148438-8.660156.429688 37.636718 3.71875 68.207031 31.398437 76.296874 67.574218 17.234376 5.71875 32.082032 16.675782 42.652344 30.988282v-11.914063c0-48.09375-38.984375-87.078125-87.078125-87.078125zm0 0"/>
            <path d="m96.007812 328.453125c0 6.320313-5.121093 11.441406-11.4375 11.441406-6.316406 0-11.4375-5.121093-11.4375-11.441406 0-6.316406 5.121094-11.4375 11.4375-11.4375 6.316407 0 11.4375 5.121094 11.4375 11.4375zm0 0"/>
            <path d="m170.074219 328.453125c0 6.320313-5.121094 11.441406-11.4375 11.441406-6.320313 0-11.441407-5.121093-11.441407-11.441406 0-6.316406 5.121094-11.4375 11.441407-11.4375 6.316406 0 11.4375 5.121094 11.4375 11.4375zm0 0"/>
        </g>
        <path d="m121.601562 394.667969c19.851563 0 36.195313-15.011719 38.304688-34.300781.246094-2.257813-1.519531-4.234376-3.789062-4.234376h-69.03125c-2.269532 0-4.035157 1.976563-3.789063 4.234376 2.109375 19.289062 18.453125 34.300781 38.304687 34.300781zm0 0"
              fill="#fff"/>
    </symbol>

    <symbol viewBox="0 0 492 492" id="ic_close">
        <path d="M300.188,246L484.14,62.04c5.06-5.064,7.852-11.82,7.86-19.024c0-7.208-2.792-13.972-7.86-19.028L468.02,7.872 c-5.068-5.076-11.824-7.856-19.036-7.856c-7.2,0-13.956,2.78-19.024,7.856L246.008,191.82L62.048,7.872 c-5.06-5.076-11.82-7.856-19.028-7.856c-7.2,0-13.96,2.78-19.02,7.856L7.872,23.988c-10.496,10.496-10.496,27.568,0,38.052 L191.828,246L7.872,429.952c-5.064,5.072-7.852,11.828-7.852,19.032c0,7.204,2.788,13.96,7.852,19.028l16.124,16.116 c5.06,5.072,11.824,7.856,19.02,7.856c7.208,0,13.968-2.784,19.028-7.856l183.96-183.952l183.952,183.952 c5.068,5.072,11.824,7.856,19.024,7.856h0.008c7.204,0,13.96-2.784,19.028-7.856l16.12-16.116 c5.06-5.064,7.852-11.824,7.852-19.028c0-7.204-2.792-13.96-7.852-19.028L300.188,246z"
              fill="currentColor"/>
    </symbol>

    <symbol viewBox="0 0 512 512" id="backspace">
        <path d="M490.667,64H133.077c-7.196,0-13.906,3.627-17.848,9.647L3.485,244.314c-4.647,7.098-4.647,16.274,0,23.372
				l111.744,170.667c3.942,6.02,10.652,9.647,17.848,9.647h357.589c11.782,0,21.333-9.551,21.333-21.333V85.333
				C512,73.551,502.449,64,490.667,64z M469.333,405.333H144.609L46.833,256l97.776-149.333h324.725V405.333z"/>
        <path d="M198.246,356.418c8.331,8.331,21.839,8.331,30.17,0l70.248-70.248l70.248,70.248c8.331,8.331,21.839,8.331,30.17,0
				s8.331-21.839,0-30.17L328.834,256l70.248-70.248c8.331-8.331,8.331-21.839,0-30.17s-21.839-8.331-30.17,0l-70.248,70.248
				l-70.248-70.248c-8.331-8.331-21.839-8.331-30.17,0c-8.331,8.331-8.331,21.839,0,30.17L268.495,256l-70.248,70.248
				C189.915,334.58,189.915,348.087,198.246,356.418z" fill="currentColor"/>
    </symbol>

    <symbol viewBox="0 0 512 512" id="ic_share">
        <path d="m295 491.86a25 25 0 0 1 -25-25v-100.58a300.22 300.22 0 0 0 -138.31 41 25 25 0 1 1 -25.31-43.12 350.16 350.16 0 0 1 177.07-48.16h11.55a25 25 0 0 1 25 25v61.26l133.2-146.4-133.2-146.38v61.27a25 25 0 0 1 -25 25h-40.82c-112.58 0-204.18 91.82-204.18 204.69v46.7a25 25 0 0 1 -50 0v-46.7a254.43 254.43 0 0 1 254.18-254.69h15.82v-100.89a25 25 0 0 1 43.49-16.86l192 211a25 25 0 0 1 0 33.65l-192 211a25 25 0 0 1 -18.49 8.21z"/>
    </symbol>

    <symbol viewBox="0 0 511.997 511.997" id="ic_link">
        <path d="M211.26,389.24l-60.331,60.331c-25.012,25.012-65.517,25.012-90.508,0.005c-24.996-24.996-24.996-65.505-0.005-90.496
				l120.683-120.683c24.991-24.992,65.5-24.992,90.491,0c8.331,8.331,21.839,8.331,30.17,0c8.331-8.331,8.331-21.839,0-30.17
				c-41.654-41.654-109.177-41.654-150.831,0L30.247,328.909c-41.654,41.654-41.654,109.177,0,150.831
				c41.649,41.676,109.177,41.676,150.853,0l60.331-60.331c8.331-8.331,8.331-21.839,0-30.17S219.591,380.909,211.26,389.24z"/>
        <path d="M479.751,30.24c-41.654-41.654-109.199-41.654-150.853,0l-72.384,72.384c-8.331,8.331-8.331,21.839,0,30.17
				c8.331,8.331,21.839,8.331,30.17,0l72.384-72.384c24.991-24.992,65.521-24.992,90.513,0c24.991,24.991,24.991,65.5,0,90.491
				L316.845,283.638c-24.992,24.992-65.5,24.992-90.491,0c-8.331-8.331-21.839-8.331-30.17,0s-8.331,21.839,0,30.17
				c41.654,41.654,109.177,41.654,150.831,0l132.736-132.736C521.405,139.418,521.405,71.894,479.751,30.24z"/>
    </symbol>

    <symbol viewBox="0 0 512 512" id="ic_download">
        <path d="m410 513h-308a102.12 102.12 0 0 1 -102-102v-308a102.12 102.12 0 0 1 102-102h308a102.12 102.12 0 0 1 102 102v308a102.12 102.12 0 0 1 -102 102zm-308-472a62.07 62.07 0 0 0 -62 62v308a62.07 62.07 0 0 0 62 62h308a62.07 62.07 0 0 0 62-62v-308a62.07 62.07 0 0 0 -62-62z"/>
        <path d="m256 325.36a20 20 0 0 1 -20-20v-185.92a20 20 0 0 1 40 0v185.92a20 20 0 0 1 -20 20z"/>
        <path d="m256 339.62a33.58 33.58 0 0 1 -23.9-9.89l-77.56-77.55a20 20 0 0 1 28.29-28.29l73.17 73.18 73.17-73.18a20 20 0 0 1 28.29 28.29l-77.56 77.55a33.58 33.58 0 0 1 -23.9 9.89z"/>
        <path d="m343.32 412.56h-174.64a20 20 0 0 1 0-40h174.64a20 20 0 0 1 0 40z"/>
    </symbol>

    <symbol viewBox="0 0 359 359" id="ic_puzzle">
        <path d="M96,0H13C7.5,0,3,4.5,3,10v83c0,5.5,4.5,10,10,10h83c5.5,0,10-4.5,10-10V10C106,4.5,101.5,0,96,0z M87,84H23V20h64V84z"/>
        <path d="M221,0h-83c-5.5,0-10,4.5-10,10v83c0,5.5,4.5,10,10,10h83c5.5,0,10-4.5,10-10V10C231,4.5,226.5,0,221,0z M212,84h-64V20
			h64V84z"/>
        <path d="M96,126H13c-5.5,0-10,4.5-10,10v83c0,5.5,4.5,10,10,10h83c5.5,0,10-4.5,10-10v-83C106,130.5,101.5,126,96,126z M87,209H23
			v-63h64V209z"/>
        <path d="M221,126h-83c-5.5,0-10,4.5-10,10v83c0,5.5,4.5,10,10,10h83c5.5,0,10-4.5,10-10v-83C231,130.5,226.5,126,221,126z
			 M212,209h-64v-63h64V209z"/>
        <path d="M346,0h-83c-5.5,0-10,4.5-10,10v83c0,5.5,4.5,10,10,10h83c5.5,0,10-4.5,10-10V10C356,4.5,351.5,0,346,0z M337,84h-64V20
			h64V84z"/>
        <path d="M346,126h-83c-5.5,0-10,4.5-10,10v83c0,5.5,4.5,10,10,10h83c5.5,0,10-4.5,10-10v-83C356,130.5,351.5,126,346,126z
			 M337,209h-64v-63h64V209z"/>
        <path d="M96,256H13c-5.5,0-10,4.5-10,10v83c0,5.5,4.5,10,10,10h83c5.5,0,10-4.5,10-10v-83C106,260.5,101.5,256,96,256z M87,340H23
			v-64h64V340z"/>
        <path d="M221,256h-83c-5.5,0-10,4.5-10,10v83c0,5.5,4.5,10,10,10h83c5.5,0,10-4.5,10-10v-83C231,260.5,226.5,256,221,256z
			 M212,340h-64v-64h64V340z"/>
        <path d="M346,256h-83c-5.5,0-10,4.5-10,10v83c0,5.5,4.5,10,10,10h83c5.5,0,10-4.5,10-10v-83C356,260.5,351.5,256,346,256z
			 M337,340h-64v-64h64V340z"/>
    </symbol>

    <symbol viewBox="0 0 1143.1 512" id="ic_generator">
        <path d="M87.7,0c19.7,0,37.3,13.9,42.4,32.9l77.5,290.4l86.3-291.1c5.9-19,23.4-32.2,43.2-32.2h50.5c19.7,0,38,13.2,43.9,32.2
	L520,323.3l79-290.4c5.1-19,22.7-32.9,42.4-32.9h31.5c19.8,0,35.8,16.8,35.8,36.6c0,2.9-0.7,6.6-1.5,9.5l-121.4,433
	c-5.9,19-23.4,32.9-43.2,32.9H490c-14.6,0-28.5-10.2-33.6-24.9l-98.7-304.3l-97.3,304.3c-5.1,14.6-19,24.9-33.6,24.9H174
	c-19.7,0-37.3-13.2-43.2-32.2L2.8,46.1c-1.5-3.7-1.5-7.3-1.5-11C1.4,16.1,16.7,0,36.5,0H87.7z"/>
        <path d="M923.7,449.4c-21.9,0-40.5-18.6-40.5-40.5V303.4h-99.6c-21.9,0-40.5-18.6-40.5-40.5v-28.7c0-21.9,18.6-40.5,40.5-40.5h99.6
	V89.9c0-21.9,18.6-40.5,40.5-40.5h37.1c21.9,0,40.5,18.6,40.5,40.5v103.8h101.3c21.9,0,40.5,18.6,40.5,40.5v28.7
	c0,21.9-18.6,40.5-40.5,40.5h-101.3v105.5c0,21.9-18.6,40.5-40.5,40.5H923.7z"/>
    </symbol>
</svg>